<svg xmlns="http://www.w3.org/2000/svg" width="805" height="600"><rect width="805" height="600" x="0" y="0" fill="#FFFFFF" id="background"/><g id="viz"><clipPath id="serieClipPath"><rect x="-50" y="-10" width="805" height="600"/></clipPath><g transform="translate(0,0)"><g transform="translate(50,10)" clip-path="url(#serieClipPath)"><g id="axis"><g transform="translate(0,570)" fill="none" font-size="10" font-family="sans-serif" text-anchor="middle"><path class="domain" stroke="currentColor" d="M0.5,6V0.5H740.5V6"/><g class="tick" opacity="1" transform="translate(0.5,0)"><line stroke="currentColor" y2="6"/><text fill="currentColor" y="9" dy="0.71em">May</text></g><g class="tick" opacity="1" transform="translate(63.1775956284153,0)"><line stroke="currentColor" y2="6"/><text fill="currentColor" y="9" dy="0.71em">June</text></g><g class="tick" opacity="1" transform="translate(123.83333333333333,0)"><line stroke="currentColor" y2="6"/><text fill="currentColor" y="9" dy="0.71em">July</text></g><g class="tick" opacity="1" transform="translate(186.51092896174865,0)"><line stroke="currentColor" y2="6"/><text fill="currentColor" y="9" dy="0.71em">August</text></g><g class="tick" opacity="1" transform="translate(249.18852459016392,0)"><line stroke="currentColor" y2="6"/><text fill="currentColor" y="9" dy="0.71em">September</text></g><g class="tick" opacity="1" transform="translate(309.844262295082,0)"><line stroke="currentColor" y2="6"/><text fill="currentColor" y="9" dy="0.71em">October</text></g><g class="tick" opacity="1" transform="translate(372.5218579234973,0)"><line stroke="currentColor" y2="6"/><text fill="currentColor" y="9" dy="0.71em">November</text></g><g class="tick" opacity="1" transform="translate(433.1775956284153,0)"><line stroke="currentColor" y2="6"/><text fill="currentColor" y="9" dy="0.71em">December</text></g><g class="tick" opacity="1" transform="translate(495.85519125683055,0)"><line stroke="currentColor" y2="6"/><text fill="currentColor" y="9" dy="0.71em">2024</text></g><g class="tick" opacity="1" transform="translate(558.5327868852459,0)"><line stroke="currentColor" y2="6"/><text fill="currentColor" y="9" dy="0.71em">February</text></g><g class="tick" opacity="1" transform="translate(617.1666666666667,0)"><line stroke="currentColor" y2="6"/><text fill="currentColor" y="9" dy="0.71em">March</text></g><g class="tick" opacity="1" transform="translate(679.844262295082,0)"><line stroke="currentColor" y2="6"/><text fill="currentColor" y="9" dy="0.71em">April</text></g><g class="tick" opacity="1" transform="translate(740.5,0)"><line stroke="currentColor" y2="6"/><text fill="currentColor" y="9" dy="0.71em">May</text></g><text x="740" dy="-5" text-anchor="end" style="font-family: Arial, sans-serif; font-size: 12px; fill: rgb(123, 123, 123); font-weight: bold;">Fecha</text></g><g transform="translate(0,0)" fill="none" font-size="10" font-family="sans-serif" text-anchor="end"><path class="domain" stroke="currentColor" d="M0.5,570.5V0.5"/><g class="tick" opacity="1" transform="translate(0,570.5)"><line stroke="currentColor" x2="-6"/><text fill="currentColor" x="-9" dy="0.32em">440</text></g><g class="tick" opacity="1" transform="translate(0,507.16666666666663)"><line stroke="currentColor" x2="-6"/><text fill="currentColor" x="-9" dy="0.32em">460</text></g><g class="tick" opacity="1" transform="translate(0,443.8333333333333)"><line stroke="currentColor" x2="-6"/><text fill="currentColor" x="-9" dy="0.32em">480</text></g><g class="tick" opacity="1" transform="translate(0,380.50000000000006)"><line stroke="currentColor" x2="-6"/><text fill="currentColor" x="-9" dy="0.32em">500</text></g><g class="tick" opacity="1" transform="translate(0,317.1666666666667)"><line stroke="currentColor" x2="-6"/><text fill="currentColor" x="-9" dy="0.32em">520</text></g><g class="tick" opacity="1" transform="translate(0,253.83333333333331)"><line stroke="currentColor" x2="-6"/><text fill="currentColor" x="-9" dy="0.32em">540</text></g><g class="tick" opacity="1" transform="translate(0,190.50000000000003)"><line stroke="currentColor" x2="-6"/><text fill="currentColor" x="-9" dy="0.32em">560</text></g><g class="tick" opacity="1" transform="translate(0,127.16666666666666)"><line stroke="currentColor" x2="-6"/><text fill="currentColor" x="-9" dy="0.32em">580</text></g><g class="tick" opacity="1" transform="translate(0,63.833333333333364)"><line stroke="currentColor" x2="-6"/><text fill="currentColor" x="-9" dy="0.32em">600</text></g><g class="tick" opacity="1" transform="translate(0,0.5)"><line stroke="currentColor" x2="-6"/><text fill="currentColor" x="-9" dy="0.32em">620</text></g><text x="4" text-anchor="start" dominant-baseline="hanging" style="font-family: Arial, sans-serif; font-size: 12px; fill: rgb(123, 123, 123); font-weight: bold;">Distancia recorrida(km)</text></g></g><g id="viz"><g><path d="M4.043715846994536,332.49999999999994C14.153005464480874,332.49999999999994,14.153005464480874,94.99999999999999,24.262295081967213,94.99999999999999C33.36065573770492,94.99999999999999,33.36065573770492,285,42.459016393442624,285C58.63387978142077,285,58.63387978142077,411.6666666666667,74.80874316939891,411.6666666666667C80.87431693989072,411.6666666666667,80.87431693989072,221.66666666666663,86.93989071038251,221.66666666666663C100.08196721311475,221.66666666666663,100.08196721311475,158.33333333333334,113.224043715847,158.33333333333334C116.2568306010929,158.33333333333334,116.2568306010929,300.8333333333333,119.28961748633881,300.8333333333333C135.46448087431696,300.8333333333333,135.46448087431696,158.33333333333334,151.63934426229508,158.33333333333334C154.672131147541,158.33333333333334,154.672131147541,0,157.70491803278688,0C165.79234972677597,0,165.79234972677597,285,173.87978142076503,285C182.97814207650273,285,182.97814207650273,380.00000000000006,192.07650273224044,380.00000000000006C205.21857923497268,380.00000000000006,205.21857923497268,332.49999999999994,218.36065573770492,332.49999999999994C225.43715846994536,332.49999999999994,225.43715846994536,158.33333333333334,232.5136612021858,158.33333333333334C240.60109289617486,158.33333333333334,240.60109289617486,237.49999999999997,248.68852459016392,237.49999999999997C260.8196721311475,237.49999999999997,260.8196721311475,332.49999999999994,272.95081967213116,332.49999999999994C280.0273224043716,332.49999999999994,280.0273224043716,380.00000000000006,287.103825136612,380.00000000000006C293.1693989071038,380.00000000000006,293.1693989071038,126.66666666666666,299.23497267759564,126.66666666666666C305.3005464480874,126.66666666666666,305.3005464480874,205.83333333333337,311.3661202185792,205.83333333333337C313.38797814207646,205.83333333333337,313.38797814207646,253.33333333333331,315.40983606557376,253.33333333333331C322.4863387978142,253.33333333333331,322.4863387978142,285,329.56284153005464,285C336.6393442622951,285,336.6393442622951,126.66666666666666,343.7158469945355,126.66666666666666C350.7923497267759,126.66666666666666,350.7923497267759,190.00000000000003,357.86885245901635,190.00000000000003C363.9344262295082,190.00000000000003,363.9344262295082,411.6666666666667,370,411.6666666666667C377.07650273224044,411.6666666666667,377.07650273224044,142.5,384.1530054644809,142.5C392.24043715846994,142.5,392.24043715846994,253.33333333333331,400.32786885245906,253.33333333333331C408.41530054644807,253.33333333333331,408.41530054644807,269.1666666666667,416.5027322404371,269.1666666666667C420.54644808743166,269.1666666666667,420.54644808743166,285,424.5901639344262,285C430.655737704918,285,430.655737704918,94.99999999999999,436.72131147540983,94.99999999999999C439.75409836065575,94.99999999999999,439.75409836065575,221.66666666666663,442.78688524590166,221.66666666666663C448.8524590163935,221.66666666666663,448.8524590163935,316.6666666666667,454.91803278688525,316.6666666666667C468.06010928961746,316.6666666666667,468.06010928961746,253.33333333333331,481.20218579234967,253.33333333333331C489.2896174863388,253.33333333333331,489.2896174863388,332.49999999999994,497.37704918032784,332.49999999999994C500.40983606557376,332.49999999999994,500.40983606557376,475,503.44262295081967,475C509.5081967213115,475,509.5081967213115,570,515.5737704918033,570C530.7377049180328,570,530.7377049180328,316.6666666666667,545.9016393442623,316.6666666666667C558.032786885246,316.6666666666667,558.032786885246,364.16666666666663,570.1639344262295,364.16666666666663C583.3060109289618,364.16666666666663,583.3060109289618,411.6666666666667,596.448087431694,411.6666666666667C601.5027322404371,411.6666666666667,601.5027322404371,332.49999999999994,606.5573770491803,332.49999999999994C611.6120218579235,332.49999999999994,611.6120218579235,380.00000000000006,616.6666666666667,380.00000000000006C634.8633879781421,380.00000000000006,634.8633879781421,253.33333333333331,653.0601092896175,253.33333333333331C669.2349726775956,253.33333333333331,669.2349726775956,142.5,685.4098360655738,142.5C693.4972677595629,142.5,693.4972677595629,285,701.5846994535519,285C708.6612021857923,285,708.6612021857923,158.33333333333334,715.7377049180327,158.33333333333334C721.8032786885245,158.33333333333334,721.8032786885245,253.33333333333331,727.8688524590164,253.33333333333331" stroke="#1f77b4" fill="none"/><text font-family="sans-serif" font-size="10" class="labels" x="157.70491803278688" y="0" dx="0" dy="-4" text-anchor="middle"/></g></g></g><text y="4" x="4" style="font-family: Arial, sans-serif; font-size: 12px; fill: black; font-weight: bold; dominant-baseline: hanging;"/></g><g id="grid"><rect x="0" y="0" width="805" height="600" fill="none" stroke="#ccc"/></g></g></svg>